# xmcd
#
# Track frame offsets: 
#        150
#        15243
#        32372
#        56738
#        74970
#        95994
#        112651
#        131537
#        153583
#        173623
#        191208
#
# Disc length: 2726 seconds
#
# Revision: 0
# Processed by: cddbd v1.5.2PL0 Copyright (c) Steve Scherf et al.
# Submitted via: ExactAudioCopy v1.3
#
DISCID=920aa40b
DTITLE=Ina Forsman - Ina Forsman
DYEAR=2016
DGENRE=Blues
TTITLE0=Hanging Loose
TTITLE1=Pretty Messed Up
TTITLE2=Bubbly Kisses
TTITLE3=Farewell
TTITLE4=Don't Hurt Me Now
TTITLE5=Talk To Me
TTITLE6=Now You Want Me Back
TTITLE7=Devil May Dance Tonight
TTITLE8=Before You Go Home
TTITLE9=No Room For Love
TTITLE10=I Want A Little Sugar In My Bowl
EXTD=
EXTT0=
EXTT1=
EXTT2=
EXTT3=
EXTT4=
EXTT5=
EXTT6=
EXTT7=
EXTT8=
EXTT9=
EXTT10=
PLAYORDER=
